# xmcd
#
# Track frame offsets:
#	150
#	18753
#	38246
#	53673
#	70307
#	93511
#	114192
#	125863
#	144526
#	164776
#	175712
#	191074
#	202051
#	217857
#	235586
#
# Disc length: 3456 seconds
#
# Revision: 1
# Processed by: cddbd v1.5.2PL0 Copyright (c) Steve Scherf et al.
# Submitted via: audiograbber 1.83.01
#
DISCID=d40d7e0f
DTITLE=Flying Tongue Kiss - The Swamp Album
DYEAR=2006
DGENRE=Country Blues
TTITLE0=Wild About My Lovin'
TTITLE1=Moths
TTITLE2=Road Train
TTITLE3=One Step At A Time
TTITLE4=Gemini
TTITLE5=Not That Big A Fool
TTITLE6=Who Walks In
TTITLE7=Diving In
TTITLE8=Harcourt Freeway Blues
TTITLE9=Down Home Mama
TTITLE10=Sold My Soul
TTITLE11=Raking In The Hay
TTITLE12=Faces In The Floor
TTITLE13=Bring My Body Home
TTITLE14=Everyday
EXTD=Oz Indi  Harcourt  http://flyingtonguekiss.blogspot.com/ 2006FTK
EXTT0=
EXTT1=
EXTT2=
EXTT3=
EXTT4=
EXTT5=
EXTT6=
EXTT7=
EXTT8=
EXTT9=
EXTT10=
EXTT11=
EXTT12=
EXTT13=
EXTT14=
PLAYORDER=
